<svg xmlns="http://www.w3.org/2000/svg" viewBox="0 0 800 400" fill="none">
  <rect width="800" height="400" fill="#0a0a0a"/>
  <!-- Two columns: old way vs new way -->
  <!-- Old way -->
  <g transform="translate(140,60)">
    <text x="0" y="0" fill="#27272a" font-family="monospace" font-size="12">"use ChatGPT"</text>
    <rect x="0" y="20" width="200" height="24" rx="4" fill="#18181b" stroke="#27272a"/>
    <text x="100" y="36" fill="#a1a1aa" font-family="monospace" font-size="10" text-anchor="middle">copy prompt</text>
    <rect x="0" y="54" width="200" height="24" rx="4" fill="#18181b" stroke="#27272a"/>
    <text x="100" y="70" fill="#a1a1aa" font-family="monospace" font-size="10" text-anchor="middle">paste result</text>
    <rect x="0" y="88" width="200" height="24" rx="4" fill="#18181b" stroke="#27272a"/>
    <text x="100" y="104" fill="#a1a1aa" font-family="monospace" font-size="10" text-anchor="middle">fix manually</text>
    <rect x="0" y="122" width="200" height="24" rx="4" fill="#18181b" stroke="#27272a"/>
    <text x="100" y="138" fill="#a1a1aa" font-family="monospace" font-size="10" text-anchor="middle">repeat 50x</text>
    <text x="100" y="180" fill="#27272a" font-family="monospace" font-size="11" text-anchor="middle">human in the loop</text>
  </g>
  <!-- Arrow -->
  <line x1="400" y1="160" x2="430" y2="160" stroke="#22c55e" stroke-width="2"/>
  <polygon points="428,155 438,160 428,165" fill="#22c55e"/>
  <!-- New way -->
  <g transform="translate(470,60)">
    <text x="0" y="0" fill="#22c55e" font-family="monospace" font-size="12">AI-native architecture</text>
    <rect x="0" y="20" width="200" height="24" rx="4" fill="#18181b" stroke="#22c55e" stroke-width="0.5"/>
    <text x="100" y="36" fill="#e4e4e7" font-family="monospace" font-size="10" text-anchor="middle">task decomposition</text>
    <rect x="0" y="54" width="200" height="24" rx="4" fill="#18181b" stroke="#22c55e" stroke-width="0.5"/>
    <text x="100" y="70" fill="#e4e4e7" font-family="monospace" font-size="10" text-anchor="middle">role-based agents</text>
    <rect x="0" y="88" width="200" height="24" rx="4" fill="#18181b" stroke="#22c55e" stroke-width="0.5"/>
    <text x="100" y="104" fill="#e4e4e7" font-family="monospace" font-size="10" text-anchor="middle">quality gates</text>
    <rect x="0" y="122" width="200" height="24" rx="4" fill="#18181b" stroke="#22c55e" stroke-width="0.5"/>
    <text x="100" y="138" fill="#e4e4e7" font-family="monospace" font-size="10" text-anchor="middle">autonomous pipeline</text>
    <text x="100" y="180" fill="#22c55e" font-family="monospace" font-size="11" text-anchor="middle">human approves results</text>
  </g>
  <text x="400" y="340" fill="#a1a1aa" font-family="monospace" font-size="14" text-anchor="middle">not "use AI" but "architect for AI"</text>
</svg>
