<svg xmlns="http://www.w3.org/2000/svg" viewBox="0 0 800 400" fill="none">
  <rect width="800" height="400" fill="#0a0a0a"/>
  <!-- 31 small squares representing subsystems, grid layout -->
  <g transform="translate(120,80)">
    <!-- Row 1 -->
    <rect x="0" y="0" width="32" height="32" rx="4" fill="#18181b" stroke="#27272a"/>
    <rect x="44" y="0" width="32" height="32" rx="4" fill="#18181b" stroke="#27272a"/>
    <rect x="88" y="0" width="32" height="32" rx="4" fill="#18181b" stroke="#27272a"/>
    <rect x="132" y="0" width="32" height="32" rx="4" fill="#18181b" stroke="#27272a"/>
    <rect x="176" y="0" width="32" height="32" rx="4" fill="#18181b" stroke="#27272a"/>
    <rect x="220" y="0" width="32" height="32" rx="4" fill="#18181b" stroke="#27272a"/>
    <rect x="264" y="0" width="32" height="32" rx="4" fill="#18181b" stroke="#27272a"/>
    <rect x="308" y="0" width="32" height="32" rx="4" fill="#18181b" stroke="#27272a"/>
    <!-- Row 2 -->
    <rect x="0" y="44" width="32" height="32" rx="4" fill="#18181b" stroke="#27272a"/>
    <rect x="44" y="44" width="32" height="32" rx="4" fill="#18181b" stroke="#27272a"/>
    <rect x="88" y="44" width="32" height="32" rx="4" fill="#18181b" stroke="#27272a"/>
    <rect x="132" y="44" width="32" height="32" rx="4" fill="#18181b" stroke="#27272a"/>
    <rect x="176" y="44" width="32" height="32" rx="4" fill="#18181b" stroke="#27272a"/>
    <rect x="220" y="44" width="32" height="32" rx="4" fill="#18181b" stroke="#27272a"/>
    <rect x="264" y="44" width="32" height="32" rx="4" fill="#18181b" stroke="#27272a"/>
    <rect x="308" y="44" width="32" height="32" rx="4" fill="#18181b" stroke="#27272a"/>
    <!-- Row 3 -->
    <rect x="0" y="88" width="32" height="32" rx="4" fill="#18181b" stroke="#27272a"/>
    <rect x="44" y="88" width="32" height="32" rx="4" fill="#18181b" stroke="#27272a"/>
    <rect x="88" y="88" width="32" height="32" rx="4" fill="#18181b" stroke="#27272a"/>
    <rect x="132" y="88" width="32" height="32" rx="4" fill="#18181b" stroke="#27272a"/>
    <rect x="176" y="88" width="32" height="32" rx="4" fill="#18181b" stroke="#27272a"/>
    <rect x="220" y="88" width="32" height="32" rx="4" fill="#18181b" stroke="#27272a"/>
    <rect x="264" y="88" width="32" height="32" rx="4" fill="#18181b" stroke="#27272a"/>
    <rect x="308" y="88" width="32" height="32" rx="4" fill="#18181b" stroke="#27272a"/>
    <!-- Row 4 (7 remaining) -->
    <rect x="0" y="132" width="32" height="32" rx="4" fill="#18181b" stroke="#27272a"/>
    <rect x="44" y="132" width="32" height="32" rx="4" fill="#18181b" stroke="#27272a"/>
    <rect x="88" y="132" width="32" height="32" rx="4" fill="#18181b" stroke="#27272a"/>
    <rect x="132" y="132" width="32" height="32" rx="4" fill="#18181b" stroke="#27272a"/>
    <rect x="176" y="132" width="32" height="32" rx="4" fill="#18181b" stroke="#27272a"/>
    <rect x="220" y="132" width="32" height="32" rx="4" fill="#18181b" stroke="#27272a"/>
    <rect x="264" y="132" width="32" height="32" rx="4" fill="#18181b" stroke="#27272a"/>
    <!-- Accent: one highlighted square -->
    <rect x="176" y="44" width="32" height="32" rx="4" fill="#22c55e" opacity="0.9"/>
  </g>
  <!-- Arrow from person to grid -->
  <circle cx="540" cy="160" r="24" fill="none" stroke="#a1a1aa" stroke-width="1.5"/>
  <line x1="540" y1="136" x2="540" y2="120" stroke="#a1a1aa" stroke-width="1.5"/>
  <line x1="540" y1="184" x2="540" y2="220" stroke="#a1a1aa" stroke-width="1.5"/>
  <line x1="516" y1="200" x2="540" y2="184" stroke="#a1a1aa" stroke-width="1.5"/>
  <line x1="564" y1="200" x2="540" y2="184" stroke="#a1a1aa" stroke-width="1.5"/>
  <!-- Arrow -->
  <line x1="490" y1="160" x2="460" y2="160" stroke="#22c55e" stroke-width="2"/>
  <polygon points="462,155 452,160 462,165" fill="#22c55e"/>
  <!-- Label -->
  <text x="400" y="320" fill="#a1a1aa" font-family="monospace" font-size="14" text-anchor="middle">31 subsystem &middot; 1 person &middot; 0 manual code</text>
</svg>
