<svg xmlns="http://www.w3.org/2000/svg" viewBox="0 0 600 500" fill="none">
  <rect width="600" height="500" fill="#0a0a0a"/>
  <!-- Grid of 31 subsystem squares -->
  <g transform="translate(60,50)">
    <!-- Row 1 (8) -->
    <rect x="0" y="0" width="44" height="44" rx="6" fill="#18181b" stroke="#27272a" stroke-width="1.5"/>
    <rect x="54" y="0" width="44" height="44" rx="6" fill="#18181b" stroke="#27272a" stroke-width="1.5"/>
    <rect x="108" y="0" width="44" height="44" rx="6" fill="#18181b" stroke="#27272a" stroke-width="1.5"/>
    <rect x="162" y="0" width="44" height="44" rx="6" fill="#18181b" stroke="#27272a" stroke-width="1.5"/>
    <rect x="216" y="0" width="44" height="44" rx="6" fill="#18181b" stroke="#27272a" stroke-width="1.5"/>
    <rect x="270" y="0" width="44" height="44" rx="6" fill="#18181b" stroke="#27272a" stroke-width="1.5"/>
    <rect x="324" y="0" width="44" height="44" rx="6" fill="#18181b" stroke="#27272a" stroke-width="1.5"/>
    <rect x="378" y="0" width="44" height="44" rx="6" fill="#18181b" stroke="#27272a" stroke-width="1.5"/>
    <!-- Row 2 (8) -->
    <rect x="0" y="54" width="44" height="44" rx="6" fill="#18181b" stroke="#27272a" stroke-width="1.5"/>
    <rect x="54" y="54" width="44" height="44" rx="6" fill="#18181b" stroke="#27272a" stroke-width="1.5"/>
    <rect x="108" y="54" width="44" height="44" rx="6" fill="#18181b" stroke="#27272a" stroke-width="1.5"/>
    <rect x="162" y="54" width="44" height="44" rx="6" fill="#22c55e" opacity="0.8"/>
    <rect x="216" y="54" width="44" height="44" rx="6" fill="#18181b" stroke="#27272a" stroke-width="1.5"/>
    <rect x="270" y="54" width="44" height="44" rx="6" fill="#18181b" stroke="#27272a" stroke-width="1.5"/>
    <rect x="324" y="54" width="44" height="44" rx="6" fill="#18181b" stroke="#27272a" stroke-width="1.5"/>
    <rect x="378" y="54" width="44" height="44" rx="6" fill="#18181b" stroke="#27272a" stroke-width="1.5"/>
    <!-- Row 3 (8) -->
    <rect x="0" y="108" width="44" height="44" rx="6" fill="#18181b" stroke="#27272a" stroke-width="1.5"/>
    <rect x="54" y="108" width="44" height="44" rx="6" fill="#18181b" stroke="#27272a" stroke-width="1.5"/>
    <rect x="108" y="108" width="44" height="44" rx="6" fill="#18181b" stroke="#27272a" stroke-width="1.5"/>
    <rect x="162" y="108" width="44" height="44" rx="6" fill="#18181b" stroke="#27272a" stroke-width="1.5"/>
    <rect x="216" y="108" width="44" height="44" rx="6" fill="#18181b" stroke="#27272a" stroke-width="1.5"/>
    <rect x="270" y="108" width="44" height="44" rx="6" fill="#18181b" stroke="#27272a" stroke-width="1.5"/>
    <rect x="324" y="108" width="44" height="44" rx="6" fill="#18181b" stroke="#27272a" stroke-width="1.5"/>
    <rect x="378" y="108" width="44" height="44" rx="6" fill="#18181b" stroke="#27272a" stroke-width="1.5"/>
    <!-- Row 4 (7) -->
    <rect x="0" y="162" width="44" height="44" rx="6" fill="#18181b" stroke="#27272a" stroke-width="1.5"/>
    <rect x="54" y="162" width="44" height="44" rx="6" fill="#18181b" stroke="#27272a" stroke-width="1.5"/>
    <rect x="108" y="162" width="44" height="44" rx="6" fill="#18181b" stroke="#27272a" stroke-width="1.5"/>
    <rect x="162" y="162" width="44" height="44" rx="6" fill="#18181b" stroke="#27272a" stroke-width="1.5"/>
    <rect x="216" y="162" width="44" height="44" rx="6" fill="#18181b" stroke="#27272a" stroke-width="1.5"/>
    <rect x="270" y="162" width="44" height="44" rx="6" fill="#18181b" stroke="#27272a" stroke-width="1.5"/>
    <rect x="324" y="162" width="44" height="44" rx="6" fill="#18181b" stroke="#27272a" stroke-width="1.5"/>
  </g>
  <!-- Person icon -->
  <g transform="translate(500,100)">
    <circle cx="30" cy="30" r="24" fill="none" stroke="#a1a1aa" stroke-width="2"/>
    <circle cx="30" cy="22" r="8" fill="none" stroke="#a1a1aa" stroke-width="1.5"/>
    <path d="M12,52 Q30,38 48,52" fill="none" stroke="#a1a1aa" stroke-width="1.5"/>
  </g>
  <!-- Arrow from person to grid -->
  <line x1="496" y1="130" x2="440" y2="130" stroke="#22c55e" stroke-width="3"/>
  <polygon points="444,123 432,130 444,137" fill="#22c55e"/>
  <!-- Bottom text -->
  <text x="300" y="340" fill="#e4e4e7" font-family="monospace" font-size="20" text-anchor="middle" font-weight="bold">31 subsystem</text>
  <text x="300" y="370" fill="#a1a1aa" font-family="monospace" font-size="16" text-anchor="middle">1 person · 0 manual code</text>
  <text x="300" y="420" fill="#22c55e" font-family="monospace" font-size="14" text-anchor="middle">every square is a working module in production</text>
</svg>
