<svg xmlns="http://www.w3.org/2000/svg" viewBox="0 0 600 500" fill="none">
  <rect width="600" height="500" fill="#0a0a0a"/>

  <!-- Calculator -->
  <g transform="translate(60,60)">
    <rect x="0" y="0" width="120" height="150" rx="12" fill="#18181b" stroke="#27272a" stroke-width="2"/>
    <rect x="16" y="16" width="88" height="32" rx="6" fill="#22c55e" opacity="0.2"/>
    <text x="60" y="38" fill="#22c55e" font-family="monospace" font-size="16" text-anchor="middle">= 100%</text>
    <rect x="16" y="60" width="24" height="20" rx="4" fill="#27272a"/>
    <rect x="48" y="60" width="24" height="20" rx="4" fill="#27272a"/>
    <rect x="80" y="60" width="24" height="20" rx="4" fill="#27272a"/>
    <rect x="16" y="88" width="24" height="20" rx="4" fill="#27272a"/>
    <rect x="48" y="88" width="24" height="20" rx="4" fill="#27272a"/>
    <rect x="80" y="88" width="24" height="20" rx="4" fill="#27272a"/>
    <rect x="16" y="116" width="24" height="20" rx="4" fill="#27272a"/>
    <rect x="48" y="116" width="56" height="20" rx="4" fill="#27272a"/>
    <text x="60" y="190" fill="#a1a1aa" font-family="monospace" font-size="14" text-anchor="middle">deterministic</text>
  </g>

  <!-- VS -->
  <text x="260" y="145" fill="#3f3f46" font-family="monospace" font-size="32" text-anchor="middle">vs</text>

  <!-- AI brain -->
  <g transform="translate(330,70)">
    <circle cx="60" cy="60" r="60" fill="#18181b" stroke="#27272a" stroke-width="2"/>
    <text x="60" y="52" fill="#a1a1aa" font-family="monospace" font-size="18" text-anchor="middle">LLM</text>
    <text x="60" y="76" fill="#a1a1aa" font-family="monospace" font-size="14" text-anchor="middle">~92-97%</text>
    <text x="60" y="180" fill="#a1a1aa" font-family="monospace" font-size="14" text-anchor="middle">probabilistic</text>
  </g>

  <!-- Arrow down -->
  <line x1="300" y1="280" x2="300" y2="320" stroke="#22c55e" stroke-width="3"/>
  <polygon points="292,316 300,330 308,316" fill="#22c55e"/>

  <!-- Solution box -->
  <g transform="translate(100,340)">
    <rect x="0" y="0" width="400" height="120" rx="12" fill="#18181b" stroke="#22c55e" stroke-width="2"/>
    <text x="200" y="35" fill="#22c55e" font-family="monospace" font-size="18" font-weight="bold" text-anchor="middle">verification loop</text>
    <text x="200" y="62" fill="#a1a1aa" font-family="monospace" font-size="14" text-anchor="middle">generate → check → fix → recheck</text>
    <text x="200" y="85" fill="#e4e4e7" font-family="monospace" font-size="15" text-anchor="middle">probabilistic + deterministic = 99.5%</text>
    <text x="200" y="108" fill="#22c55e" font-family="monospace" font-size="12" text-anchor="middle">AI generates, scripts verify, loops compensate</text>
  </g>
</svg>
