<svg xmlns="http://www.w3.org/2000/svg" viewBox="0 0 600 500" fill="none">
  <rect width="600" height="500" fill="#0a0a0a"/>
  <!-- Central node -->
  <circle cx="300" cy="200" r="36" fill="#22c55e" opacity="0.15" stroke="#22c55e" stroke-width="2"/>
  <text x="300" y="196" fill="#22c55e" font-family="monospace" font-size="14" text-anchor="middle">pain</text>
  <text x="300" y="212" fill="#22c55e" font-family="monospace" font-size="10" text-anchor="middle" opacity="0.7">central</text>
  <!-- Surrounding nodes -->
  <circle cx="140" cy="100" r="28" fill="#18181b" stroke="#27272a" stroke-width="2"/>
  <text x="140" y="104" fill="#a1a1aa" font-family="monospace" font-size="13" text-anchor="middle">job</text>
  <circle cx="460" cy="100" r="28" fill="#18181b" stroke="#27272a" stroke-width="2"/>
  <text x="460" y="104" fill="#a1a1aa" font-family="monospace" font-size="13" text-anchor="middle">segment</text>
  <circle cx="100" cy="280" r="28" fill="#18181b" stroke="#27272a" stroke-width="2"/>
  <text x="100" y="284" fill="#a1a1aa" font-family="monospace" font-size="13" text-anchor="middle">trigger</text>
  <circle cx="500" cy="280" r="28" fill="#18181b" stroke="#27272a" stroke-width="2"/>
  <text x="500" y="284" fill="#a1a1aa" font-family="monospace" font-size="13" text-anchor="middle">trend</text>
  <circle cx="300" cy="360" r="28" fill="#18181b" stroke="#27272a" stroke-width="2"/>
  <text x="300" y="364" fill="#a1a1aa" font-family="monospace" font-size="13" text-anchor="middle">solution</text>
  <circle cx="200" cy="50" r="22" fill="#18181b" stroke="#27272a" stroke-width="1.5"/>
  <text x="200" y="54" fill="#a1a1aa" font-family="monospace" font-size="11" text-anchor="middle">competitor</text>
  <circle cx="400" cy="50" r="22" fill="#18181b" stroke="#27272a" stroke-width="1.5"/>
  <text x="400" y="54" fill="#a1a1aa" font-family="monospace" font-size="11" text-anchor="middle">feature</text>
  <!-- Edges -->
  <line x1="268" y1="180" x2="165" y2="120" stroke="#27272a" stroke-width="1.5"/>
  <line x1="332" y1="180" x2="435" y2="120" stroke="#27272a" stroke-width="1.5"/>
  <line x1="270" y1="215" x2="125" y2="260" stroke="#27272a" stroke-width="1.5"/>
  <line x1="330" y1="215" x2="475" y2="260" stroke="#27272a" stroke-width="1.5"/>
  <line x1="300" y1="236" x2="300" y2="332" stroke="#22c55e" stroke-width="2" stroke-dasharray="6,4"/>
  <line x1="155" y1="80" x2="185" y2="66" stroke="#27272a" stroke-width="1"/>
  <line x1="445" y1="80" x2="415" y2="66" stroke="#27272a" stroke-width="1"/>
  <!-- Evidence trail label -->
  <text x="340" y="295" fill="#22c55e" font-family="monospace" font-size="11" transform="rotate(90,340,295)">evidence trail</text>
  <!-- Bottom -->
  <text x="300" y="440" fill="#a1a1aa" font-family="monospace" font-size="16" text-anchor="middle">14 node types · 18 edge types</text>
  <text x="300" y="468" fill="#22c55e" font-family="monospace" font-size="14" text-anchor="middle">every recommendation traces back to user's words</text>
</svg>
